<?xml version="1.0" encoding="utf-8"?>
<!-- Generator: Adobe Illustrator 21.0.0, SVG Export Plug-In . SVG Version: 6.00 Build 0)  -->
<svg version="1.1" id="Layer_1" xmlns="http://www.w3.org/2000/svg" xmlns:xlink="http://www.w3.org/1999/xlink" x="0px" y="0px"
	 viewBox="0 0 71.1 76.5" style="enable-background:new 0 0 71.1 76.5;" xml:space="preserve">
<style type="text/css">
	.st0{fill:#61A1C8;}
</style>
<title>chair</title>
<path class="st0" d="M65.1,30.1h-6V11c0-6.1-4.9-11-11-11H23c-6.1,0-11,4.9-11,11l0,0v19.1H6c-3.3,0-6,2.7-6,6v39.4
	c0,0.5,0.4,1,0.9,1c0,0,0.1,0,0.1,0h69.1c0.5,0,1-0.4,1-0.9c0,0,0-0.1,0-0.1V36.1C71.1,32.8,68.4,30.1,65.1,30.1z M69.1,74.6h-67
	V62.1h67.1L69.1,74.6L69.1,74.6z M2.1,36.1c0-2.2,1.8-4,4-4h6V60h-10V36.1z M23,2h25.1c5,0,9,4,9,9v38.2H14V11C14,6,18,2,23,2z
	 M57.2,60.1H14v-8.8h43.1v8.8H57.2z M69.1,60.1h-10v-28h6c2.2,0,4,1.8,4,4V60.1z"/>
</svg>
